<?xml version="1.0" standalone="no"?><!DOCTYPE svg PUBLIC "-//W3C//DTD SVG 1.1//EN" "http://www.w3.org/Graphics/SVG/1.1/DTD/svg11.dtd"><svg t="1608469302504" class="icon" viewBox="0 0 1024 1024" version="1.1" xmlns="http://www.w3.org/2000/svg" p-id="1222" xmlns:xlink="http://www.w3.org/1999/xlink" width="200" height="200"><defs><style type="text/css"></style></defs><path d="M637.184 998.4h-485.12c-13.312 0-24.064-10.88-24.064-24.32V49.92c0-13.44 10.752-24.32 24.064-24.32s24.064 10.88 24.064 24.32v899.84h461.184c13.312 0 24.064 10.88 24.064 24.32-0.128 13.44-10.88 24.32-24.192 24.32z" p-id="1223"></path><path d="M872.064 779.52c-13.312 0-24.064-10.88-24.064-24.32V74.24H308.992v105.344h445.568c13.312 0 24.064 10.88 24.064 24.32s-10.752 24.32-24.064 24.32H285.056c-13.312 0-24.064-10.88-24.064-24.32V49.92c0-13.44 10.752-24.32 24.064-24.32h587.008C885.248 25.6 896 36.48 896 49.92V755.2c0 13.44-10.752 24.32-23.936 24.32z" p-id="1224"></path><path d="M695.936 382.336h-410.88c-13.312 0-24.064-10.88-24.064-24.32 0-13.44 10.752-24.32 24.064-24.32h410.88c13.312 0 24.064 10.88 24.064 24.32-0.128 13.44-10.88 24.32-24.064 24.32zM578.56 536.32H285.056c-13.312 0-24.064-10.88-24.064-24.32s10.752-24.32 24.064-24.32H578.56c13.312 0 24.064 10.88 24.064 24.32s-10.88 24.32-24.064 24.32zM461.184 690.304H285.056c-13.312 0-24.064-10.88-24.064-24.32s10.752-24.32 24.064-24.32h176.128c13.312 0 24.064 10.88 24.064 24.32s-10.88 24.32-24.064 24.32zM638.72 996.48c-3.456 0-6.912-0.768-10.24-2.176a25.9328 25.9328 0 0 1-15.232-23.68V755.2c0-13.44 10.752-24.32 24.064-24.32h232.832c9.984 0 19.456 6.656 23.04 16 3.712 9.728 1.152 20.608-6.4 27.648l-230.656 215.04c-4.992 4.48-11.136 6.912-17.408 6.912z m22.528-216.96v139.136L810.496 779.52H661.248z" p-id="1225"></path></svg>