<?xml version="1.0" standalone="no"?><!DOCTYPE svg PUBLIC "-//W3C//DTD SVG 1.1//EN" "http://www.w3.org/Graphics/SVG/1.1/DTD/svg11.dtd"><svg t="1608470085744" class="icon" viewBox="0 0 1024 1024" version="1.1" xmlns="http://www.w3.org/2000/svg" p-id="9037" xmlns:xlink="http://www.w3.org/1999/xlink" width="200" height="200"><defs><style type="text/css"></style></defs><path d="M455.676 90.13s0.094-0.062 0.282-0.218c-0.062 0.062-6.684 4.874-18.176 7.028-15.49 2.874-32.416-0.218-50.28-9.182-62.772-31.542-136.35-1.936-139.442-0.688l0.032 0.124c-7.76 3.186-13.242 10.806-13.242 19.738 0 11.774 9.542 21.298 21.314 21.298 3.388 0 6.59-0.812 9.432-2.218 8.932-3.248 61.632-20.832 102.762-0.156 21.908 10.994 41.412 14.742 57.838 14.742 34.056 0 54.84-16.146 56.088-17.146l-26.608-33.322z" fill="#ED5564" p-id="9038"></path><path d="M469.356 64.274c-11.774 0-21.314 9.556-21.314 21.33v703.408h42.644V85.604c0-11.774-9.556-21.33-21.33-21.33zM1023.672 639.638c0-11.774-9.554-21.33-21.296-21.33-2.062 0-4.032 0.312-5.902 0.844l-0.468 0.124-216.426 62.146 11.742 40.974 216.926-62.274c8.896-2.558 15.424-10.77 15.424-20.484z" fill="#7F4545" p-id="9039"></path><path d="M21.706 618.308l199.45 66.77s78.232 82.478 248.2 82.478c170 0 213.222-58.276 213.222-58.276l170.516-48.968c19.176 320.42-245.312 299.122-245.312 299.122H230.916c-172.342-11.992-147.266-177.136-147.266-177.136l-26.374-19.456L48.86 726.8 0.328 703.598l21.378-85.29z" fill="#A85D5D" p-id="9040"></path><path d="M853.656 670.962C841.914 935.636 607.78 916.772 607.78 916.772H230.916c-114.818-7.962-142.002-83.946-147.36-133.758-1.53 11.68-18.41 164.864 147.36 176.418h376.866c0 0.002 258.554 20.832 245.874-288.47z" fill="#965353" p-id="9041"></path><path d="M554.66 831.516a21.284 21.284 0 0 0 21.298 21.298c11.776 0 21.298-9.526 21.298-21.298s-9.524-21.33-21.298-21.33c-11.772 0-21.298 9.556-21.298 21.33zM469.356 831.516c0 11.774 9.556 21.298 21.33 21.298S512 843.288 512 831.516s-9.54-21.33-21.314-21.33c-11.774 0-21.33 9.556-21.33 21.33zM384.082 831.516c0 11.774 9.542 21.298 21.314 21.298s21.33-9.526 21.33-21.298-9.556-21.33-21.33-21.33-21.314 9.556-21.314 21.33zM298.808 831.516c0 11.774 9.542 21.298 21.314 21.298s21.314-9.526 21.314-21.298-9.542-21.33-21.314-21.33-21.314 9.556-21.314 21.33zM199.466 660.938C230.212 415.766 149.56 192.066 149.56 192.066h520.338c160.21 187.566 49.906 469.122 49.906 469.122-193.812-89.162-520.338-0.25-520.338-0.25z" fill="#434A54" p-id="9042"></path><path d="M669.898 192.066h-42.628c138.412 162.052 74.89 394.294 55.058 454.444 12.868 4.246 25.39 9.12 37.476 14.678 0 0 110.306-281.556-49.906-469.122z" fill="#FFFFFF" opacity=".1" p-id="9043"></path><path d="M341.438 393.282c0-70.642 57.276-127.918 127.918-127.918 70.658 0 127.902 57.276 127.902 127.918 0 37.882-16.426 71.922-42.598 95.344v53.904h-170.578v-53.904c-26.17-23.422-42.644-57.462-42.644-95.344z" fill="#E6E9ED" p-id="9044"></path><path d="M501.334 393.282c0 11.774 9.556 21.33 21.33 21.33 11.776 0 21.316-9.556 21.316-21.33s-9.542-21.33-21.316-21.33c-11.772 0-21.33 9.556-21.33 21.33zM394.748 393.282c0 11.774 9.542 21.33 21.314 21.33s21.314-9.556 21.314-21.33-9.542-21.33-21.314-21.33-21.314 9.556-21.314 21.33z" fill="#434A54" p-id="9045"></path><path d="M554.66 542.498c-0.032-11.742-9.554-21.298-21.346-21.298-11.774 0-21.314 9.556-21.314 21.33h42.66v-0.032z" fill="#CCD1D9" p-id="9046"></path><path d="M512 542.498c0-11.742-9.54-21.298-21.314-21.298-11.774 0-21.33 9.556-21.33 21.33H512v-0.032zM469.356 542.498c0-11.742-9.542-21.298-21.314-21.298s-21.314 9.556-21.314 21.33h42.628v-0.032zM426.726 542.498c-0.016-11.742-9.556-21.298-21.33-21.298s-21.314 9.556-21.314 21.33h42.644v-0.032z" fill="#CCD1D9" p-id="9047"></path></svg>